HIERARCHY
ROOT Hips
{
    OFFSET   0.000000   0.000000   0.000000
    CHANNELS 6 Xposition Yposition Zposition Zrotation Xrotation Yrotation
    JOINT Chest
    {
        OFFSET   0.000000   8.007230   0.000000
        CHANNELS 3 Zrotation Xrotation Yrotation
        JOINT Chest2
        {
            OFFSET   0.000000  22.077100   0.000000
            CHANNELS 3 Zrotation Xrotation Yrotation
            JOINT Neck
            {
                OFFSET   0.000000  23.255100   0.000000
                CHANNELS 3 Zrotation Xrotation Yrotation
                JOINT Head
                {
                    OFFSET   0.000000  14.370100   1.956600
                    CHANNELS 3 Zrotation Xrotation Yrotation
                    End Site
                    {
                        OFFSET   0.000000  19.566000   0.000000
                    }
                }
            }
            JOINT LeftCollar
            {
                OFFSET   3.911900  19.017000  -0.467063
                CHANNELS 3 Zrotation Xrotation Yrotation
                JOINT LeftShoulder
                {
                    OFFSET  10.383700   0.000000   0.000000
                    CHANNELS 3 Zrotation Xrotation Yrotation
                    JOINT LeftElbow
                    {
                        OFFSET  26.662100   0.001193   0.000980
                        CHANNELS 3 Zrotation Xrotation Yrotation
                        JOINT LeftWrist
                        {
                            OFFSET  28.869000  -0.000059  -0.000082
                            CHANNELS 3 Zrotation Xrotation Yrotation
                            JOINT LeftFinger0
                            {
                                OFFSET   2.044650  -2.323450   3.252850
                                CHANNELS 3 Zrotation Xrotation Yrotation
                                JOINT LeftFinger01
                                {
                                    OFFSET   3.088130   0.000000   0.000000
                                    CHANNELS 3 Zrotation Xrotation Yrotation
                                    JOINT LeftFinger02
                                    {
                                        OFFSET   2.639460   0.000000   0.000000
                                        CHANNELS 3 Zrotation Xrotation Yrotation
                                        End Site
                                        {
                                            OFFSET   2.582190   0.000000   0.000000
                                        }
                                    }
                                }
                            }
                            JOINT LeftFinger1
                            {
                                OFFSET   8.364480   0.000000   3.252850
                                CHANNELS 3 Zrotation Xrotation Yrotation
                                JOINT LeftFinger11
                                {
                                    OFFSET   4.646930   0.000000   0.000000
                                    CHANNELS 3 Zrotation Xrotation Yrotation
                                    JOINT LeftFinger12
                                    {
                                        OFFSET   2.323470   0.000000   0.000000
                                        CHANNELS 3 Zrotation Xrotation Yrotation
                                        End Site
                                        {
                                            OFFSET   2.273050   0.000000   0.000000
                                        }
                                    }
                                }
                            }
                            JOINT LeftFinger2
                            {
                                OFFSET   8.364490   0.000016   1.078090
                                CHANNELS 3 Zrotation Xrotation Yrotation
                                JOINT LeftFinger21
                                {
                                    OFFSET   5.111610   0.000000   0.000000
                                    CHANNELS 3 Zrotation Xrotation Yrotation
                                    JOINT LeftFinger22
                                    {
                                        OFFSET   2.788150   0.000016   0.000000
                                        CHANNELS 3 Zrotation Xrotation Yrotation
                                        End Site
                                        {
                                            OFFSET   2.727660   0.000000   0.000000
                                        }
                                    }
                                }
                            }
                            JOINT LeftFinger3
                            {
                                OFFSET   7.899780   0.000015  -1.078090
                                CHANNELS 3 Zrotation Xrotation Yrotation
                                JOINT LeftFinger31
                                {
                                    OFFSET   4.646930   0.000000   0.000000
                                    CHANNELS 3 Zrotation Xrotation Yrotation
                                    JOINT LeftFinger32
                                    {
                                        OFFSET   2.323470   0.000000   0.000000
                                        CHANNELS 3 Zrotation Xrotation Yrotation
                                        End Site
                                        {
                                            OFFSET   2.273050   0.000000   0.000000
                                        }
                                    }
                                }
                            }
                            JOINT LeftFinger4
                            {
                                OFFSET   7.435090   0.000000  -3.252850
                                CHANNELS 3 Zrotation Xrotation Yrotation
                                JOINT LeftFinger41
                                {
                                    OFFSET   3.717550   0.000000   0.000000
                                    CHANNELS 3 Zrotation Xrotation Yrotation
                                    JOINT LeftFinger42
                                    {
                                        OFFSET   1.858770   0.000000   0.000000
                                        CHANNELS 3 Zrotation Xrotation Yrotation
                                        End Site
                                        {
                                            OFFSET   1.818440   0.000000   0.000000
                                        }
                                    }
                                }
                            }
                        }
                    }
                }
            }
            JOINT RightCollar
            {
                OFFSET  -3.911910  19.017000  -0.467062
                CHANNELS 3 Zrotation Xrotation Yrotation
                JOINT RightShoulder
                {
                    OFFSET -10.383700   0.000014   0.000000
                    CHANNELS 3 Zrotation Xrotation Yrotation
                    JOINT RightElbow
                    {
                        OFFSET -26.662100   0.001225   0.001091
                        CHANNELS 3 Zrotation Xrotation Yrotation
                        JOINT RightWrist
                        {
                            OFFSET -28.869000  -0.000020  -0.000085
                            CHANNELS 3 Zrotation Xrotation Yrotation
                            JOINT RightFinger0
                            {
                                OFFSET  -2.044650  -2.323490   3.252850
                                CHANNELS 3 Zrotation Xrotation Yrotation
                                JOINT RightFinger01
                                {
                                    OFFSET  -3.088130   0.000000   0.000000
                                    CHANNELS 3 Zrotation Xrotation Yrotation
                                    JOINT RightFinger02
                                    {
                                        OFFSET  -2.639460   0.000000   0.000000
                                        CHANNELS 3 Zrotation Xrotation Yrotation
                                        End Site
                                        {
                                            OFFSET  -2.582190   0.000000   0.000000
                                        }
                                    }
                                }
                            }
                            JOINT RightFinger1
                            {
                                OFFSET  -8.364480   0.000000   3.252850
                                CHANNELS 3 Zrotation Xrotation Yrotation
                                JOINT RightFinger11
                                {
                                    OFFSET  -4.646930   0.000000   0.000000
                                    CHANNELS 3 Zrotation Xrotation Yrotation
                                    JOINT RightFinger12
                                    {
                                        OFFSET  -2.323470   0.000000   0.000000
                                        CHANNELS 3 Zrotation Xrotation Yrotation
                                        End Site
                                        {
                                            OFFSET  -2.273050   0.000000   0.000000
                                        }
                                    }
                                }
                            }
                            JOINT RightFinger2
                            {
                                OFFSET  -8.364480   0.000000   1.078090
                                CHANNELS 3 Zrotation Xrotation Yrotation
                                JOINT RightFinger21
                                {
                                    OFFSET  -5.111620   0.000000   0.000000
                                    CHANNELS 3 Zrotation Xrotation Yrotation
                                    JOINT RightFinger22
                                    {
                                        OFFSET  -2.788160   0.000000   0.000000
                                        CHANNELS 3 Zrotation Xrotation Yrotation
                                        End Site
                                        {
                                            OFFSET  -2.727660   0.000000   0.000000
                                        }
                                    }
                                }
                            }
                            JOINT RightFinger3
                            {
                                OFFSET  -7.899780   0.000000  -1.078090
                                CHANNELS 3 Zrotation Xrotation Yrotation
                                JOINT RightFinger31
                                {
                                    OFFSET  -4.646930   0.000000   0.000000
                                    CHANNELS 3 Zrotation Xrotation Yrotation
                                    JOINT RightFinger32
                                    {
                                        OFFSET  -2.323470   0.000000   0.000000
                                        CHANNELS 3 Zrotation Xrotation Yrotation
                                        End Site
                                        {
                                            OFFSET  -2.273050   0.000000   0.000000
                                        }
                                    }
                                }
                            }
                            JOINT RightFinger4
                            {
                                OFFSET  -7.435090   0.000000  -3.252850
                                CHANNELS 3 Zrotation Xrotation Yrotation
                                JOINT RightFinger41
                                {
                                    OFFSET  -3.717550   0.000000   0.000000
                                    CHANNELS 3 Zrotation Xrotation Yrotation
                                    JOINT RightFinger42
                                    {
                                        OFFSET  -1.858760   0.000000   0.000000
                                        CHANNELS 3 Zrotation Xrotation Yrotation
                                        End Site
                                        {
                                            OFFSET  -1.818440   0.000000   0.000000
                                        }
                                    }
                                }
                            }
                        }
                    }
                }
            }
        }
    }
    JOINT LeftHip
    {
        OFFSET   9.783030   0.000000   0.000000
        CHANNELS 3 Zrotation Xrotation Yrotation
        JOINT LeftKnee
        {
            OFFSET   0.000063 -41.789100   0.000608
            CHANNELS 3 Zrotation Xrotation Yrotation
            JOINT LeftAnkle
            {
                OFFSET   0.000048 -41.133200  -0.000184
                CHANNELS 3 Zrotation Xrotation Yrotation
                JOINT LeftToe
                {
                    OFFSET   0.000000  -6.358960  14.674500
                    CHANNELS 3 Zrotation Xrotation Yrotation
                    End Site
                    {
                        OFFSET   0.000000   0.000000   3.913200
                    }
                }
            }
        }
    }
    JOINT RightHip
    {
        OFFSET  -9.783030   0.000000   0.000000
        CHANNELS 3 Zrotation Xrotation Yrotation
        JOINT RightKnee
        {
            OFFSET   0.000071 -41.789100   0.001239
            CHANNELS 3 Zrotation Xrotation Yrotation
            JOINT RightAnkle
            {
                OFFSET   0.000037 -41.133200  -0.000166
                CHANNELS 3 Zrotation Xrotation Yrotation
                JOINT RightToe
                {
                    OFFSET   0.000000  -6.358960  14.674500
                    CHANNELS 3 Zrotation Xrotation Yrotation
                    End Site
                    {
                        OFFSET   0.000000   0.000000   3.913200
                    }
                }
            }
        }
    }
}
MOTION
Frames: 4
Frame Time:   0.016667
  1.104420  89.497200   0.067763  -4.260780 -15.441600  -1.777060  -0.903163   9.975170   3.094490  -2.417560  19.883700   6.501810   0.757721  -3.437530   0.044990   1.257230  -6.966930  -1.688370 -10.300600 -10.775000  -4.696800 -48.747100  36.239600 -52.614900  30.208900  -6.587500 -76.884900  31.051200   0.917978 -18.814000  48.701300  53.772700 -94.667000 -41.054200  -0.009636  -0.003418 -16.147500  -0.003562   0.005567  14.579500  -5.651710 -20.732500  -0.001538  -0.000120   0.000699  -0.001061  -0.000138   0.006483 -79.664000  -0.000679  -0.002791 -79.664000   0.002757  -0.003837 -59.748000   0.006013   0.003372 -72.942500  -5.034900   1.542410 -73.010300   0.002418  -0.007215 -54.757700   0.003828  -0.002570 -69.161100  -9.358340   3.541580 -104.176000  -0.000349  -0.001148 -69.381600   0.003564   0.000296  10.012700  -8.703830  11.729600  12.825500   1.145510  55.394500 -32.082800 -18.543300  63.518800  16.457800 -11.326400  33.809300 -47.734500  28.969900  59.891400  -0.041933   0.000388  -0.001245  -5.020970   0.002324  -0.000323  14.427400   4.733490  17.786500  12.408500   0.004779  -0.003468   8.685960   0.004996  -0.009639  21.618800   5.277040  13.065400  22.223500   0.000935  -0.002442  14.800900  -0.006665  -0.001781   8.644910   2.158000  13.910400   8.908240   0.002370   0.000805   5.932870  -0.000580   0.000352  15.062000   2.270840   8.355320  22.842500  -0.000374   0.000669  15.213100  -0.000127  -0.000000   2.983520  17.827000   4.314910   1.091350   0.035340   9.188800  -0.854371  -3.927230   3.058930  -0.000000   0.000000  -0.000000   5.001060  15.140000  -5.631640  -1.274260   5.122580  -8.733940  -0.649121  -5.791450   0.407177   0.000000   0.000000  -0.000000
  1.130750  89.498100   0.076360  -4.230420 -15.443200  -1.721190  -0.893094   9.961560   3.080500  -2.393430  19.857500   6.470670   0.785702  -3.393530   0.045730   1.303330  -6.877770  -1.791460 -10.258500 -10.756600  -4.671530 -48.517600  36.255100 -52.839000  30.119700  -6.752500 -76.878000  30.960400   0.884703 -18.746200  48.687100  53.755600 -94.649900 -41.013900  -0.009708  -0.003604 -16.110100  -0.003560   0.005762  14.516900  -5.591290 -20.619700  -0.001578  -0.000245   0.000653  -0.001096  -0.000183   0.006541 -79.724300  -0.000715  -0.002795 -79.724300   0.002752  -0.003909 -59.793300   0.006059   0.003572 -72.989600  -5.030150   1.536460 -73.057100   0.002464  -0.007271 -54.792800   0.004073  -0.002706 -69.215700  -9.361650   3.532720 -104.257000  -0.000318  -0.001164 -69.435500   0.003564   0.000287   9.985050  -8.650730  11.727900  12.770800   1.054590  55.383800 -32.132100 -18.579000  63.603500  16.387800 -11.307800  33.786000 -47.792900  29.110500  60.120900   0.121287   0.000391  -0.001114  -4.939370   0.002510  -0.000303  14.451900   4.718060  17.701000  12.425400   0.004795  -0.003731   8.697780   0.004986  -0.009731  21.520400   5.264450  13.098800  22.125200   0.000994  -0.002362  14.735400  -0.006782  -0.001743   8.534730   2.134860  13.940500   8.795760   0.002361   0.000750   5.857970  -0.000540   0.000317  15.000300   2.270560   8.382380  22.750900  -0.000363   0.000647  15.152100  -0.000074   0.000000   2.949260  17.844900   4.283720   1.082980   0.001142   9.186080  -0.831199  -3.910650   3.050970  -0.000000   0.000000  -0.000000   4.971290  15.146600  -5.638160  -1.279260   5.140580  -8.736420  -0.641886  -5.818980   0.364152  -0.000000   0.000000   0.000000
  1.155500  89.499100   0.083958  -4.207910 -15.443000  -1.683900  -0.880997   9.947340   3.069480  -2.365660  19.830000   6.445240   0.810246  -3.353680   0.046034   1.343690  -6.796760  -1.871500 -10.217500 -10.724300  -4.638020 -48.272400  36.269000 -53.074100  30.099300  -6.921570 -76.861400  30.911900   0.908108 -18.703700  48.673400  53.745700 -94.633000 -41.043500  -0.009780  -0.003798 -16.133900  -0.003559   0.005945  14.454200  -5.553200 -20.584300  -0.001632  -0.000347   0.000606  -0.001131  -0.000250   0.006600 -79.757900  -0.000752  -0.002787 -79.757900   0.002748  -0.003978 -59.818500   0.006111   0.003772 -73.043800  -5.023810   1.529610 -73.110800   0.002512  -0.007341 -54.833100   0.004325  -0.002842 -69.280400  -9.363560   3.522200 -104.353000  -0.000286  -0.001195 -69.499400   0.003570   0.000280   9.951940  -8.590970  11.726100  12.669300   0.931169  55.415400 -32.192000 -18.535000  63.620900  16.251000 -11.237700  33.723100 -47.714500  29.023800  60.036100   0.096079   0.000390  -0.000980  -4.951970   0.002698  -0.000281  14.527100   4.715900  17.636400  12.479800   0.004808  -0.003994   8.735830   0.004974  -0.009820  21.526700   5.267530  13.096600  22.132000   0.001051  -0.002281  14.739900  -0.006899  -0.001708   8.536720   2.135230  13.938800   8.797750   0.002352   0.000695   5.859290  -0.000499   0.000283  15.039600   2.270480   8.365230  22.809100  -0.000349   0.000626  15.190900  -0.000038   0.000000   2.923130  17.848600   4.251440   1.071530   0.001245   9.193220  -0.814425  -3.914240   3.050010   0.000000   0.000000   0.000000   4.943020  15.152800  -5.635620  -1.282100   5.155910  -8.739130  -0.632713  -5.846120   0.330071   0.000000   0.000000  -0.000000
  1.179890  89.500300   0.091564  -4.189030 -15.441700  -1.652580  -0.867230   9.932260   3.057150  -2.334180  19.801000   6.416750   0.832865  -3.314600   0.046195   1.380840  -6.717250  -1.928020 -10.180200 -10.687000  -4.604660 -48.097500  36.250000 -53.259300  30.095400  -7.024130 -76.850200  30.872600   0.951640 -18.686600  48.632600  53.724800 -94.581700 -41.096100  -0.009848  -0.003988 -16.177900  -0.003559   0.006131  14.382600  -5.524710 -20.578400  -0.001684  -0.000442   0.000560  -0.001166  -0.000321   0.006661 -79.769500  -0.000789  -0.002779 -79.769500   0.002747  -0.004048 -59.827100   0.006163   0.003970 -73.090800  -5.020020   1.523760 -73.157600   0.002564  -0.007411 -54.868200   0.004576  -0.002981 -69.331300  -9.364660   3.513960 -104.429000  -0.000256  -0.001227 -69.549500   0.003581   0.000274   9.921300  -8.531620  11.724200  12.551900   0.810896  55.463200 -32.269000 -18.476800  63.625100  16.114600 -11.183700  33.677400 -47.637500  28.910500  59.920800   0.070871   0.000389  -0.000840  -4.964570   0.002884  -0.000260  14.593500   4.714120  17.519000  12.534600   0.004822  -0.004257   8.774230   0.004961  -0.009906  21.543800   5.272000  13.090700  22.149500   0.001110  -0.002201  14.751600  -0.007017  -0.001674   8.550430   2.137730  13.933700   8.811670   0.002341   0.000642   5.868570  -0.000459   0.000249  15.106700   2.270540   8.335940  22.908500  -0.000332   0.000607  15.257100   0.000000   0.000000   2.900090  17.849700   4.220150   1.062260   0.001971   9.200360  -0.801180  -3.925930   3.049230  -0.000000   0.000000  -0.000000   4.915100  15.161600  -5.628950  -1.282610   5.163800  -8.747290  -0.621636  -5.870410   0.303200   0.000000   0.000000   0.000000
